P3
4 5
255
100 75 200 100 100 200 100 100 200 100 100 200 200 125 200
150 30 180 150 50 180 100 120 180 100 120 180 100 120 180
100 75 100 100 80 100 100 85 100 100 95 100 100 110 100
200 100 10 200 100 10 200 100 10 210 200 10 255 0 10
